<?xml version="1.0" standalone="no"?>
<!DOCTYPE svg PUBLIC "-//W3C//DTD SVG 20010904//EN"
 "http://www.w3.org/TR/2001/REC-SVG-20010904/DTD/svg10.dtd">
<svg version="1.0" xmlns="http://www.w3.org/2000/svg"
 width="215.000000pt" height="215.000000pt" viewBox="0 0 215.000000 215.000000"
 preserveAspectRatio="xMidYMid meet">
<metadata>
Created by potrace 1.11, written by Peter Selinger 2001-2013
</metadata>
<g transform="translate(0.000000,215.000000) scale(0.100000,-0.100000)"
fill="#000000" stroke="none">
<path d="M955 2138 c-308 -36 -576 -248 -683 -543 -58 -160 -65 -347 -19 -497
64 -206 175 -395 378 -648 127 -158 398 -440 422 -440 12 0 238 226 314 315
28 33 61 71 73 85 113 128 254 336 323 475 62 125 62 127 27 147 -27 15 -33
16 -65 2 -72 -30 -181 -22 -235 16 l-28 20 -28 -41 c-41 -59 -109 -115 -181
-150 -76 -36 -88 -39 -179 -44 -132 -7 -257 40 -349 132 -220 217 -184 577 73
742 216 138 506 75 650 -141 l24 -37 38 24 c20 13 56 29 80 35 48 13 172 11
213 -3 15 -5 30 -8 32 -6 2 2 -11 36 -30 75 -153 332 -490 523 -850 482z m85
-173 c0 -69 -1 -125 -2 -126 -2 0 -23 -2 -48 -5 -264 -33 -463 -258 -461 -524
0 -47 2 -92 4 -100 48 -221 220 -389 432 -423 l75 -12 0 -345 0 -345 -103 105
c-333 339 -545 648 -632 920 -22 69 -27 105 -28 190 0 120 5 156 38 256 64
192 208 360 383 448 107 53 210 83 300 85 l42 1 0 -125z"/>
<path d="M813 1509 c-12 -4 -25 -19 -28 -32 -4 -13 -5 -105 -3 -205 3 -165 5
-182 22 -195 22 -16 56 -11 74 11 8 10 12 52 12 121 1 126 11 180 41 204 27
22 51 22 79 -1 21 -17 23 -26 25 -167 2 -138 4 -150 24 -166 23 -19 53 -15 73
8 7 9 13 61 15 145 3 137 11 166 53 188 27 14 66 3 77 -23 5 -12 11 -80 12
-152 1 -71 4 -138 7 -148 13 -43 89 -36 100 9 12 47 -1 328 -15 350 -46 69
-177 74 -231 9 -12 -14 -16 -13 -40 10 -49 47 -132 50 -191 6 -34 -26 -35 -26
-42 -2 -6 26 -37 40 -64 30z"/>
<path d="M1636 1508 c-94 -20 -155 -98 -111 -142 22 -21 49 -13 87 29 27 30
42 37 79 41 53 5 84 -14 94 -57 6 -26 5 -27 -72 -44 -134 -29 -153 -35 -186
-65 -28 -24 -32 -35 -32 -77 0 -82 54 -127 151 -126 42 1 126 32 138 52 5 7
19 -2 40 -24 24 -26 39 -33 52 -29 36 13 45 26 39 58 -4 17 -10 92 -14 167 -8
152 -22 188 -84 208 -44 15 -134 19 -181 9z m151 -264 c-6 -54 -36 -91 -84
-100 -48 -9 -82 3 -94 33 -17 44 9 68 98 91 43 10 80 20 82 21 2 0 1 -20 -2
-45z"/>
</g>
</svg>
